<svg width="55" height="60" viewBox="0 0 55 60" fill="none" xmlns="http://www.w3.org/2000/svg">
<g clip-path="url(#clip0_490_26694)">
<path d="M27.8786 34.384L27.8757 34.3856C27.736 34.4607 27.58 34.5 27.4215 34.5C27.263 34.5 27.1069 34.4607 26.9673 34.3856L26.9644 34.384C26.5783 34.1796 21.6833 31.5111 16.8924 27.3155C12.0752 23.0968 7.50014 17.4527 7.5 11.305C7.50331 8.44037 8.64275 5.69399 10.6684 3.66837C12.694 1.64275 15.4404 0.503305 18.305 0.5C21.924 0.500078 25.0677 2.05386 27.0216 4.65619L27.4215 5.18872L27.8213 4.65619C29.7752 2.05386 32.919 0.500078 36.5379 0.5C39.4026 0.503305 42.149 1.64275 44.1746 3.66837C46.2003 5.69406 47.3397 8.44056 47.343 11.3053C47.3427 17.4528 42.7677 23.0968 37.9506 27.3155C33.1596 31.5111 28.2646 34.1796 27.8786 34.384Z" stroke="#544D44"/>
</g>
<path d="M1.056 55V46.06H6.576V46.96H2.016V50.068H6.216V50.968H2.016V55H1.056ZM9.39338 55.144C8.16938 55.144 7.26938 54.388 7.26938 53.332C7.26938 52.336 7.89338 51.544 9.32138 51.304L11.6494 50.92V50.584C11.6494 49.816 11.0254 49.288 10.1374 49.288C9.34538 49.288 8.73338 49.72 8.44538 50.344L7.62938 49.9C7.98938 49.084 9.05738 48.424 10.1374 48.424C11.5534 48.424 12.5494 49.312 12.5494 50.584V55H11.6494V54.076C11.2294 54.7 10.3894 55.144 9.39338 55.144ZM8.22938 53.296C8.22938 53.872 8.73338 54.328 9.45338 54.328C10.7614 54.328 11.6494 53.404 11.6494 52.216V51.736L9.53738 52.084C8.60138 52.24 8.22938 52.708 8.22938 53.296ZM15.9994 55L13.4914 48.568H14.4994L16.4554 53.776L18.4114 48.568H19.4314L16.8994 55H15.9994ZM23.3774 55.144C21.5534 55.144 20.1014 53.716 20.1014 51.772C20.1014 49.852 21.5054 48.424 23.3774 48.424C25.2374 48.424 26.6414 49.84 26.6414 51.772C26.6414 53.752 25.1654 55.144 23.3774 55.144ZM23.3774 54.244C24.6614 54.244 25.6814 53.176 25.6814 51.772C25.6814 50.38 24.6614 49.324 23.3774 49.324C22.0814 49.324 21.0614 50.38 21.0614 51.772C21.0614 53.176 22.0814 54.244 23.3774 54.244ZM28.2287 55V48.568H29.1287V49.264C29.4647 48.772 30.0407 48.484 30.8207 48.484H31.2287V49.384H30.6647C29.7407 49.384 29.1287 49.984 29.1287 51.04V55H28.2287ZM32.2834 47.38V46.06H33.1834V47.38H32.2834ZM32.2834 55V48.568H33.1834V55H32.2834ZM37.4856 55.072C36.3336 55.072 35.6856 54.376 35.6856 53.128V49.468H34.4976V48.568H34.7976C35.3376 48.568 35.6856 48.172 35.6856 47.62V47.08H36.5856V48.568H38.0016V49.468H36.5856V53.128C36.5856 53.776 36.8376 54.232 37.6416 54.232C37.7736 54.232 37.9656 54.22 38.0976 54.196V55C37.9056 55.048 37.6296 55.072 37.4856 55.072ZM42.1379 55.072C40.9859 55.072 40.3379 54.376 40.3379 53.128V49.468H39.1499V48.568H39.4499C39.9899 48.568 40.3379 48.172 40.3379 47.62V47.08H41.2379V48.568H42.6539V49.468H41.2379V53.128C41.2379 53.776 41.4899 54.232 42.2939 54.232C42.4259 54.232 42.6179 54.22 42.7499 54.196V55C42.5579 55.048 42.2819 55.072 42.1379 55.072ZM47.0239 55.144C45.2239 55.144 43.8319 53.716 43.8319 51.76C43.8319 49.828 45.1639 48.424 46.9279 48.424C48.7759 48.424 49.8919 49.948 49.8919 51.484C49.8919 51.64 49.8799 51.856 49.8439 52.06H44.7799C44.8159 53.44 45.8839 54.304 47.0239 54.304C47.9599 54.304 48.5839 53.8 48.9919 53.128L49.7599 53.536C49.3639 54.412 48.3319 55.144 47.0239 55.144ZM46.9279 49.264C45.8839 49.264 44.9479 50.008 44.8039 51.22H48.9199C48.9079 50.068 47.9959 49.264 46.9279 49.264ZM51.4787 55V48.568H52.3787V49.264C52.7147 48.772 53.2907 48.484 54.0707 48.484H54.4787V49.384H53.9147C52.9907 49.384 52.3787 49.984 52.3787 51.04V55H51.4787Z" fill="black"/>
<defs>
<clipPath id="clip0_490_26694">
<rect width="41" height="35" fill="white" transform="translate(7)"/>
</clipPath>
</defs>
</svg>
