<svg width="52" height="52" viewBox="0 0 52 52" fill="none" xmlns="http://www.w3.org/2000/svg">
<circle cx="26" cy="26" r="26" fill="#FBF8F6"/>
<g clip-path="url(#clip0_418_32219)">
<path d="M42.1849 21.1851C42.1849 31.5554 26.8087 39.9494 26.1539 40.2961C25.9813 40.3889 25.7884 40.4375 25.5925 40.4375C25.3965 40.4375 25.2036 40.3889 25.031 40.2961C24.3762 39.9494 9 31.5554 9 21.1851C9.00274 18.7499 9.97134 16.4152 11.6933 14.6933C13.4152 12.9713 15.7499 12.0027 18.1851 12C21.2443 12 23.9228 13.3155 25.5925 15.5392C27.2621 13.3155 29.9406 12 32.9998 12C35.435 12.0027 37.7697 12.9713 39.4916 14.6933C41.2136 16.4152 42.1822 18.7499 42.1849 21.1851Z" fill="#544D44"/>
</g>
<defs>
<clipPath id="clip0_418_32219">
<rect width="33.3125" height="28.4375" fill="white" transform="translate(9 12)"/>
</clipPath>
</defs>
</svg>
