<svg width="52" height="52" viewBox="0 0 52 52" fill="none" xmlns="http://www.w3.org/2000/svg">
<circle cx="26" cy="26" r="26" fill="#FBF8F6"/>
<g clip-path="url(#clip0_162_4309)">
<path d="M25.92 39.8542L25.9171 39.8557C25.8173 39.9094 25.7057 39.9375 25.5925 39.9375C25.4792 39.9375 25.3676 39.9094 25.2679 39.8557L25.2649 39.8542C24.9544 39.6898 20.9843 37.5256 17.0993 34.1233C13.1881 30.698 9.50014 26.1364 9.5 21.1854C9.50267 18.8827 10.4186 16.6751 12.0468 15.0468C13.6751 13.4186 15.8827 12.5027 18.1854 12.5C21.0984 12.5001 23.624 13.7503 25.1926 15.8394L25.5925 16.372L25.9923 15.8394C27.5609 13.7503 30.0865 12.5001 32.9995 12.5C35.3022 12.5027 37.5098 13.4186 39.1381 15.0468C40.7664 16.6752 41.6823 18.8829 41.6849 21.1857C41.6846 26.1366 37.9967 30.6981 34.0856 34.1233C30.2006 37.5256 26.2305 39.6898 25.92 39.8542Z" stroke="#544D44"/>
</g>
<defs>
<clipPath id="clip0_162_4309">
<rect width="33.3125" height="28.4375" fill="white" transform="translate(9 12)"/>
</clipPath>
</defs>
</svg>
