<svg width="160" height="157" viewBox="0 0 160 157" fill="none" xmlns="http://www.w3.org/2000/svg">
<path d="M48 16.5C53.0905 9.42976 56.7421 6.192 65 2V11" stroke="#474539" stroke-width="3" stroke-linecap="round" stroke-linejoin="round"/>
<path d="M121.188 97.8752V154.75" stroke="#474539" stroke-width="3" stroke-linecap="round" stroke-linejoin="round"/>
<path d="M52.1807 65.375C54.1567 71.4688 60.2504 83.6562 78.11 80.5622C88.6054 79.2968 113.397 82.1937 125.25 101.938C131.344 112.094 147.379 112.076 157.75 86.2575" stroke="#474539" stroke-width="3" stroke-linecap="round" stroke-linejoin="round"/>
<path d="M158.5 86C158.5 104.238 158.5 104 154.5 111" stroke="#474539" stroke-width="3" stroke-linecap="round"/>
<path d="M19.625 154.75V48.8922C19.625 28.8137 30.6047 23.9972 35.875 20.6892C48.0625 14.5948 58.6928 17.6658 64.3125 20.6896C69.9322 23.7129 76.5 30.8454 76.5 30.8454L89.5 48.8922C93.8779 56.162 92.3031 61.0273 88.5 64.5" stroke="#474539" stroke-width="3" stroke-linecap="round" stroke-linejoin="round"/>
<path d="M88.6875 154.75V142.563C88.6875 131.345 79.5932 122.25 68.375 122.25C57.1568 122.25 48.0625 131.345 48.0625 142.563V154.75" stroke="#474539" stroke-width="3" stroke-linecap="round"/>
<path d="M2.50017 80.5C1.09038 32.3656 4.40943 9.91305 39.0002 1.5" stroke="#474539" stroke-width="3" stroke-linecap="round"/>
</svg>
