<svg width="36" height="56" viewBox="0 0 36 56" fill="none" xmlns="http://www.w3.org/2000/svg">
<rect x="0.5" y="2.5" width="35" height="2" rx="1" fill="#474539"/>
<rect x="0.5" y="16.5" width="35" height="2" rx="1" fill="#474539"/>
<rect x="0.5" y="30.5" width="35" height="2" rx="1" fill="#474539"/>
<path d="M3.556 51V42.06H4.396L7.516 46.596L10.636 42.06H11.476V51H10.516V43.932L7.54 48.24H7.492L4.516 43.908V51H3.556ZM16.3833 51.144C14.5833 51.144 13.1913 49.716 13.1913 47.76C13.1913 45.828 14.5233 44.424 16.2873 44.424C18.1353 44.424 19.2513 45.948 19.2513 47.484C19.2513 47.64 19.2393 47.856 19.2033 48.06H14.1393C14.1753 49.44 15.2433 50.304 16.3833 50.304C17.3193 50.304 17.9433 49.8 18.3513 49.128L19.1193 49.536C18.7233 50.412 17.6913 51.144 16.3833 51.144ZM16.2873 45.264C15.2433 45.264 14.3073 46.008 14.1633 47.22H18.2793C18.2673 46.068 17.3553 45.264 16.2873 45.264ZM20.8381 51V44.568H21.7381V45.36C22.1221 44.772 22.7941 44.424 23.5861 44.424C24.9421 44.424 25.9981 45.456 25.9981 46.824V51H25.0981V47.172C25.0981 46.008 24.4141 45.324 23.4301 45.324C22.4461 45.324 21.7381 46.02 21.7381 47.172V51H20.8381ZM27.7318 53.64C27.4798 53.64 27.2038 53.604 26.9518 53.508V52.668C27.1078 52.692 27.3718 52.74 27.6358 52.74C28.4158 52.74 28.7518 52.476 29.1478 51.552L29.3758 51L26.8078 44.568H27.7798L29.8798 49.872L31.9798 44.568H32.9758L30.0358 51.816C29.6518 52.764 29.0038 53.64 27.7318 53.64Z" fill="black"/>
</svg>
