<svg width="59" height="56" viewBox="0 0 59 56" fill="none" xmlns="http://www.w3.org/2000/svg">
<path d="M16 31.5H15.9037L15.8143 31.5358L9 34.2615V8C9 3.85786 12.3579 0.5 16.5 0.5H42.5C46.6421 0.5 50 3.85786 50 8V24C50 28.1421 46.6421 31.5 42.5 31.5H41.5H16Z" fill="#FBF8F6" stroke="#474539"/>
<path d="M1.556 51V42.06H2.396L5.516 46.596L8.636 42.06H9.476V51H8.516V43.932L5.54 48.24H5.492L2.516 43.908V51H1.556ZM14.3833 51.144C12.5833 51.144 11.1913 49.716 11.1913 47.76C11.1913 45.828 12.5233 44.424 14.2873 44.424C16.1353 44.424 17.2513 45.948 17.2513 47.484C17.2513 47.64 17.2393 47.856 17.2033 48.06H12.1393C12.1753 49.44 13.2433 50.304 14.3833 50.304C15.3193 50.304 15.9433 49.8 16.3513 49.128L17.1193 49.536C16.7233 50.412 15.6913 51.144 14.3833 51.144ZM14.2873 45.264C13.2433 45.264 12.3073 46.008 12.1633 47.22H16.2793C16.2673 46.068 15.3553 45.264 14.2873 45.264ZM18.8381 51V41.916H19.7381V51H18.8381ZM24.4843 51.144C22.6723 51.144 21.3163 49.716 21.3163 47.784C21.3163 45.852 22.6603 44.424 24.4843 44.424C25.4923 44.424 26.3203 44.856 26.8363 45.54V41.916H27.7363V51H26.8363V49.956C26.3443 50.712 25.4803 51.144 24.4843 51.144ZM24.5323 50.244C25.8283 50.244 26.8363 49.176 26.8363 47.784C26.8363 46.392 25.8283 45.324 24.5323 45.324C23.2483 45.324 22.2763 46.38 22.2763 47.784C22.2763 49.188 23.2363 50.244 24.5323 50.244ZM29.5842 43.38V42.06H30.4842V43.38H29.5842ZM29.5842 51V44.568H30.4842V51H29.5842ZM32.3263 51V44.568H33.2263V45.36C33.6103 44.772 34.2823 44.424 35.0743 44.424C36.4303 44.424 37.4863 45.456 37.4863 46.824V51H36.5863V47.172C36.5863 46.008 35.9023 45.324 34.9183 45.324C33.9343 45.324 33.2263 46.02 33.2263 47.172V51H32.3263ZM42.2533 53.64C40.9213 53.64 39.8893 52.992 39.4573 52.056L40.2853 51.612C40.5373 52.224 41.2093 52.74 42.2293 52.74C43.3933 52.74 44.4013 52.044 44.4013 50.748V49.716C43.9213 50.472 43.0573 50.904 42.1093 50.904C40.2973 50.904 38.9413 49.476 38.9413 47.664C38.9413 45.852 40.2853 44.424 42.1093 44.424C43.0573 44.424 43.8853 44.856 44.4013 45.54V44.568H45.3013V50.748C45.3013 52.416 44.0293 53.64 42.2533 53.64ZM42.1573 50.004C43.3933 50.004 44.4013 48.936 44.4013 47.664C44.4013 46.392 43.3933 45.324 42.1573 45.324C40.8733 45.324 39.9013 46.38 39.9013 47.664C39.9013 48.948 40.8613 50.004 42.1573 50.004ZM50.0786 51.144C48.2786 51.144 46.8866 49.716 46.8866 47.76C46.8866 45.828 48.2186 44.424 49.9826 44.424C51.8306 44.424 52.9466 45.948 52.9466 47.484C52.9466 47.64 52.9346 47.856 52.8986 48.06H47.8346C47.8706 49.44 48.9386 50.304 50.0786 50.304C51.0146 50.304 51.6386 49.8 52.0466 49.128L52.8146 49.536C52.4186 50.412 51.3866 51.144 50.0786 51.144ZM49.9826 45.264C48.9386 45.264 48.0026 46.008 47.8586 47.22H51.9746C51.9626 46.068 51.0506 45.264 49.9826 45.264ZM54.5334 51V44.568H55.4334V45.264C55.7694 44.772 56.3454 44.484 57.1254 44.484H57.5334V45.384H56.9694C56.0454 45.384 55.4334 45.984 55.4334 47.04V51H54.5334Z" fill="black"/>
</svg>
