<svg width="24" height="26" viewBox="0 0 24 26" fill="none" xmlns="http://www.w3.org/2000/svg">
<g clip-path="url(#clip0_355_26503)">
<path d="M22.7887 24.6448C23.4062 25.2702 24.3592 24.305 23.7418 23.6932L18.708 18.5817C20.4737 16.6031 21.4498 14.0301 21.4463 11.3631C21.4463 5.39519 16.6542 0.541992 10.7613 0.541992C4.86835 0.541992 0.0761719 5.39519 0.0761719 11.3631C0.0761719 17.331 4.86835 22.1842 10.7613 22.1842C13.4191 22.1842 15.8756 21.1919 17.7549 19.5469L22.7887 24.6448ZM1.41718 11.3631C1.41718 6.14288 5.61872 1.90143 10.7599 1.90143C15.9145 1.90143 20.1027 6.14288 20.1027 11.3631C20.1027 16.5834 15.9145 20.8248 10.7599 20.8248C5.61872 20.8248 1.41718 16.5834 1.41718 11.3631Z" fill="#474539"/>
</g>
<defs>
<clipPath id="clip0_355_26503">
<rect width="24" height="25" fill="white" transform="translate(0 0.5)"/>
</clipPath>
</defs>
</svg>
